<mxfile host="app.diagrams.net" agent="Mozilla/5.0 (Windows NT 10.0; Win64; x64) AppleWebKit/537.36 (KHTML, like Gecko) Chrome/134.0.0.0 Safari/537.36" version="26.0.16">
  <diagram name="Page-1" id="2YBvvXClWsGukQMizWep">
    <mxGraphModel dx="546" dy="757" grid="1" gridSize="10" guides="1" tooltips="1" connect="1" arrows="1" fold="1" page="1" pageScale="1" pageWidth="850" pageHeight="1100" math="0" shadow="0">
      <root>
        <mxCell id="0" />
        <mxCell id="1" parent="0" />
        <mxCell id="Dx6G5qN0DzZxVwgHidQh-24" value="Покупатель" style="shape=umlActor;verticalLabelPosition=bottom;verticalAlign=top;html=1;" vertex="1" parent="1">
          <mxGeometry x="380" y="405" width="30" height="60" as="geometry" />
        </mxCell>
        <mxCell id="Dx6G5qN0DzZxVwgHidQh-25" value="Фармацевт" style="shape=umlActor;verticalLabelPosition=bottom;verticalAlign=top;html=1;" vertex="1" parent="1">
          <mxGeometry x="670" y="180" width="30" height="60" as="geometry" />
        </mxCell>
        <mxCell id="Dx6G5qN0DzZxVwgHidQh-26" value="Сайт аптеки" style="html=1;whiteSpace=wrap;" vertex="1" parent="1">
          <mxGeometry x="340" y="185" width="110" height="50" as="geometry" />
        </mxCell>
        <mxCell id="Dx6G5qN0DzZxVwgHidQh-30" style="edgeStyle=orthogonalEdgeStyle;rounded=0;orthogonalLoop=1;jettySize=auto;html=1;endArrow=none;startFill=0;" edge="1" parent="1" source="Dx6G5qN0DzZxVwgHidQh-27" target="Dx6G5qN0DzZxVwgHidQh-25">
          <mxGeometry relative="1" as="geometry" />
        </mxCell>
        <mxCell id="Dx6G5qN0DzZxVwgHidQh-27" value="База данных" style="html=1;whiteSpace=wrap;" vertex="1" parent="1">
          <mxGeometry x="630" y="415" width="110" height="50" as="geometry" />
        </mxCell>
        <mxCell id="Dx6G5qN0DzZxVwgHidQh-28" style="edgeStyle=orthogonalEdgeStyle;rounded=0;orthogonalLoop=1;jettySize=auto;html=1;entryX=0.5;entryY=0;entryDx=0;entryDy=0;entryPerimeter=0;endArrow=none;startFill=0;" edge="1" parent="1" source="Dx6G5qN0DzZxVwgHidQh-26" target="Dx6G5qN0DzZxVwgHidQh-24">
          <mxGeometry relative="1" as="geometry" />
        </mxCell>
        <mxCell id="Dx6G5qN0DzZxVwgHidQh-29" style="edgeStyle=orthogonalEdgeStyle;rounded=0;orthogonalLoop=1;jettySize=auto;html=1;entryX=0.5;entryY=0.5;entryDx=0;entryDy=0;entryPerimeter=0;endArrow=none;startFill=0;" edge="1" parent="1" source="Dx6G5qN0DzZxVwgHidQh-26" target="Dx6G5qN0DzZxVwgHidQh-25">
          <mxGeometry relative="1" as="geometry" />
        </mxCell>
        <mxCell id="Dx6G5qN0DzZxVwgHidQh-32" value="Запрос на&amp;nbsp;&lt;div&gt;покупку продукта&lt;/div&gt;" style="endArrow=block;endFill=1;html=1;edgeStyle=orthogonalEdgeStyle;align=left;verticalAlign=top;rounded=0;" edge="1" parent="1">
          <mxGeometry x="-0.6923" y="90" relative="1" as="geometry">
            <mxPoint x="360" y="380" as="sourcePoint" />
            <mxPoint x="360" y="270" as="targetPoint" />
            <mxPoint as="offset" />
          </mxGeometry>
        </mxCell>
        <mxCell id="Dx6G5qN0DzZxVwgHidQh-33" value="1" style="edgeLabel;resizable=0;html=1;align=left;verticalAlign=bottom;" connectable="0" vertex="1" parent="Dx6G5qN0DzZxVwgHidQh-32">
          <mxGeometry x="-1" relative="1" as="geometry">
            <mxPoint x="-20" y="-20" as="offset" />
          </mxGeometry>
        </mxCell>
        <mxCell id="Dx6G5qN0DzZxVwgHidQh-36" value="Передача информации о заказе" style="endArrow=block;endFill=1;html=1;edgeStyle=orthogonalEdgeStyle;align=left;verticalAlign=top;rounded=0;" edge="1" parent="1">
          <mxGeometry x="-1" y="32" relative="1" as="geometry">
            <mxPoint x="490" y="179" as="sourcePoint" />
            <mxPoint x="630" y="179" as="targetPoint" />
            <mxPoint x="-10" y="2" as="offset" />
          </mxGeometry>
        </mxCell>
        <mxCell id="Dx6G5qN0DzZxVwgHidQh-37" value="2" style="edgeLabel;resizable=0;html=1;align=left;verticalAlign=bottom;" connectable="0" vertex="1" parent="Dx6G5qN0DzZxVwgHidQh-36">
          <mxGeometry x="-1" relative="1" as="geometry">
            <mxPoint x="70" y="-20" as="offset" />
          </mxGeometry>
        </mxCell>
        <mxCell id="Dx6G5qN0DzZxVwgHidQh-39" value="Проверка наличия&lt;div&gt;продукта&lt;/div&gt;" style="endArrow=block;endFill=1;html=1;edgeStyle=orthogonalEdgeStyle;align=left;verticalAlign=top;rounded=0;" edge="1" parent="1">
          <mxGeometry x="-0.5556" y="10" relative="1" as="geometry">
            <mxPoint x="710" y="290" as="sourcePoint" />
            <mxPoint x="710" y="380" as="targetPoint" />
            <mxPoint as="offset" />
          </mxGeometry>
        </mxCell>
        <mxCell id="Dx6G5qN0DzZxVwgHidQh-40" value="3" style="edgeLabel;resizable=0;html=1;align=left;verticalAlign=bottom;" connectable="0" vertex="1" parent="Dx6G5qN0DzZxVwgHidQh-39">
          <mxGeometry x="-1" relative="1" as="geometry">
            <mxPoint x="10" y="10" as="offset" />
          </mxGeometry>
        </mxCell>
        <mxCell id="Dx6G5qN0DzZxVwgHidQh-41" value="Данные о наличии&lt;div&gt;продукта&lt;/div&gt;" style="endArrow=block;endFill=1;html=1;edgeStyle=orthogonalEdgeStyle;align=left;verticalAlign=top;rounded=0;dashed=1;" edge="1" parent="1">
          <mxGeometry x="0.3333" y="110" relative="1" as="geometry">
            <mxPoint x="660" y="380" as="sourcePoint" />
            <mxPoint x="660" y="290" as="targetPoint" />
            <mxPoint as="offset" />
          </mxGeometry>
        </mxCell>
        <mxCell id="Dx6G5qN0DzZxVwgHidQh-42" value="4" style="edgeLabel;resizable=0;html=1;align=left;verticalAlign=bottom;" connectable="0" vertex="1" parent="Dx6G5qN0DzZxVwgHidQh-41">
          <mxGeometry x="-1" relative="1" as="geometry">
            <mxPoint x="-20" y="-20" as="offset" />
          </mxGeometry>
        </mxCell>
        <mxCell id="Dx6G5qN0DzZxVwgHidQh-44" style="edgeStyle=orthogonalEdgeStyle;rounded=0;orthogonalLoop=1;jettySize=auto;html=1;elbow=vertical;" edge="1" parent="1" source="Dx6G5qN0DzZxVwgHidQh-25" target="Dx6G5qN0DzZxVwgHidQh-25">
          <mxGeometry relative="1" as="geometry" />
        </mxCell>
        <mxCell id="Dx6G5qN0DzZxVwgHidQh-47" value="&lt;h1 style=&quot;margin-top: 0px;&quot;&gt;&lt;br&gt;&lt;/h1&gt;" style="text;html=1;whiteSpace=wrap;overflow=hidden;rounded=0;" vertex="1" parent="1">
          <mxGeometry x="740" y="180" width="180" height="120" as="geometry" />
        </mxCell>
        <mxCell id="Dx6G5qN0DzZxVwgHidQh-48" value="Принятие решения о заказе" style="text;html=1;align=center;verticalAlign=middle;whiteSpace=wrap;rounded=0;" vertex="1" parent="1">
          <mxGeometry x="720" y="195" width="60" height="30" as="geometry" />
        </mxCell>
        <mxCell id="Dx6G5qN0DzZxVwgHidQh-49" value="5" style="text;html=1;align=center;verticalAlign=middle;whiteSpace=wrap;rounded=0;" vertex="1" parent="1">
          <mxGeometry x="720" y="235" width="60" height="30" as="geometry" />
        </mxCell>
        <mxCell id="Dx6G5qN0DzZxVwgHidQh-50" value="Информация о&lt;div&gt;статусе заказа&lt;/div&gt;" style="endArrow=block;endFill=1;html=1;edgeStyle=orthogonalEdgeStyle;align=left;verticalAlign=top;rounded=0;" edge="1" parent="1">
          <mxGeometry x="-0.5556" y="10" relative="1" as="geometry">
            <mxPoint x="425" y="280" as="sourcePoint" />
            <mxPoint x="425" y="370" as="targetPoint" />
            <mxPoint as="offset" />
          </mxGeometry>
        </mxCell>
        <mxCell id="Dx6G5qN0DzZxVwgHidQh-51" value="7" style="edgeLabel;resizable=0;html=1;align=left;verticalAlign=bottom;" connectable="0" vertex="1" parent="Dx6G5qN0DzZxVwgHidQh-50">
          <mxGeometry x="-1" relative="1" as="geometry">
            <mxPoint x="15" y="20" as="offset" />
          </mxGeometry>
        </mxCell>
        <mxCell id="Dx6G5qN0DzZxVwgHidQh-52" value="Передача информации о заказе" style="endArrow=block;endFill=1;html=1;edgeStyle=orthogonalEdgeStyle;align=left;verticalAlign=top;rounded=0;dashed=1;" edge="1" parent="1">
          <mxGeometry x="1" y="10" relative="1" as="geometry">
            <mxPoint x="630" y="235" as="sourcePoint" />
            <mxPoint x="490" y="235" as="targetPoint" />
            <mxPoint x="-10" y="-10" as="offset" />
          </mxGeometry>
        </mxCell>
        <mxCell id="Dx6G5qN0DzZxVwgHidQh-53" value="2" style="edgeLabel;resizable=0;html=1;align=left;verticalAlign=bottom;" connectable="0" vertex="1" parent="Dx6G5qN0DzZxVwgHidQh-52">
          <mxGeometry x="-1" relative="1" as="geometry">
            <mxPoint x="70" y="-20" as="offset" />
          </mxGeometry>
        </mxCell>
        <mxCell id="Dx6G5qN0DzZxVwgHidQh-55" value="6" style="text;strokeColor=none;fillColor=none;align=left;verticalAlign=top;spacingLeft=4;spacingRight=4;overflow=hidden;rotatable=0;points=[[0,0.5],[1,0.5]];portConstraint=eastwest;whiteSpace=wrap;html=1;" vertex="1" parent="1">
          <mxGeometry x="540" y="260" width="100" height="26" as="geometry" />
        </mxCell>
      </root>
    </mxGraphModel>
  </diagram>
</mxfile>
